<svg width="50" height="50" viewBox="0 0 50 50" fill="none" xmlns="http://www.w3.org/2000/svg">
<g clip-path="url(#clip0_565_87610)">
<path d="M40.0576 27.1767C40.0576 26.2788 39.3296 25.5508 38.4317 25.5508C37.5337 25.5508 36.8058 26.2788 36.8058 27.1767C36.8058 33.6864 31.5096 38.9826 24.9999 38.9826C18.4901 38.9826 13.194 33.6864 13.194 27.1767C13.194 26.2788 12.466 25.5508 11.5681 25.5508C10.6701 25.5508 9.94214 26.2788 9.94214 27.1767C9.94214 34.9302 15.8332 41.3317 23.374 42.1453V46.7482H19.3701C18.4721 46.7482 17.7442 47.4762 17.7442 48.3741C17.7442 49.2721 18.4721 50 19.3701 50H30.6299C31.5278 50 32.2558 49.2721 32.2558 48.3741C32.2558 47.4762 31.5278 46.7482 30.6299 46.7482H26.626V42.1453C34.1666 41.3317 40.0576 34.9302 40.0576 27.1767Z" fill="#00B578"/>
<path d="M25 37.0952C30.0746 37.0952 34.2029 32.9669 34.2029 27.8923V9.20291C34.2029 4.12831 30.0746 0 25 0C19.9254 0 15.7971 4.12831 15.7971 9.20291V27.8923C15.7971 32.9669 19.9254 37.0952 25 37.0952ZM19.049 9.20291C19.049 5.92137 21.7185 3.25184 25 3.25184C28.2816 3.25184 30.9511 5.92137 30.9511 9.20291V27.8923C30.9511 31.1738 28.2816 33.8434 25 33.8434C21.7185 33.8434 19.049 31.1738 19.049 27.8923V9.20291Z" fill="#00B578"/>
</g>
<defs>
<clipPath id="clip0_565_87610">
<rect width="50" height="50" fill="white"/>
</clipPath>
</defs>
</svg>
