<svg width="14" height="14" viewBox="0 0 14 14" fill="none" xmlns="http://www.w3.org/2000/svg">
<path d="M5.71875 8.25L8.21875 8.25L7 5.53125L5.71875 8.25ZM12 0L2 0C0.875 0 0 0.90625 0 2L0 12C0 13.125 0.875 14 2 14H12C13.0938 14 14 13.125 14 12L14 2C14 0.90625 13.0938 0 12 0ZM10.3125 10.9375C10.1875 11 10.0938 11.0312 10 11.0312C9.6875 11.0312 9.4375 10.8437 9.3125 10.5937L8.9375 9.75L5.03125 9.75L4.65625 10.5938C4.5 10.9688 4.0625 11.125 3.65625 10.9375C3.28125 10.7812 3.125 10.3125 3.3125 9.9375L6.3125 3.4375C6.5625 2.90625 7.40625 2.90625 7.65625 3.4375L10.6563 9.9375C10.8438 10.3125 10.6875 10.7812 10.3125 10.9375Z" fill="white"/>
</svg>
