<svg width="14" height="12" viewBox="0 0 14 12" fill="none" xmlns="http://www.w3.org/2000/svg">
<path d="M12.8516 6.87891L8.47656 11.2539C8.3125 11.418 8.09375 11.5 7.875 11.5C7.62891 11.5 7.41016 11.418 7.24609 11.2539C6.89063 10.9258 6.89063 10.3516 7.24609 10.0234L10.1172 7.125L1.75 7.125C1.25781 7.125 0.875 6.74219 0.875 6.25C0.875 5.78516 1.25781 5.375 1.75 5.375L10.1172 5.375L7.24609 2.50391C6.89063 2.17578 6.89063 1.60156 7.24609 1.27344C7.57422 0.917969 8.14844 0.917969 8.47656 1.27344L12.8516 5.64844C13.207 5.97656 13.207 6.55078 12.8516 6.87891Z" fill="#5A5A5A"/>
</svg>
