<svg width="36" height="36" viewBox="0 0 36 36" fill="none" xmlns="http://www.w3.org/2000/svg">
<g clip-path="url(#clip0_526_74328)">
<path d="M13.2832 11.4961H8.5957C8.11031 11.4961 7.7168 11.8896 7.7168 12.375C7.7168 12.8604 8.11031 13.2539 8.5957 13.2539H13.2832C13.7686 13.2539 14.1621 12.8604 14.1621 12.375C14.1621 11.8896 13.7686 11.4961 13.2832 11.4961Z" fill="#FF6609"/>
<path d="M13.2832 16.1836H8.5957C8.11031 16.1836 7.7168 16.5771 7.7168 17.0625C7.7168 17.5479 8.11031 17.9414 8.5957 17.9414H13.2832C13.7686 17.9414 14.1621 17.5479 14.1621 17.0625C14.1621 16.5771 13.7686 16.1836 13.2832 16.1836Z" fill="#FF6609"/>
<path d="M13.2832 20.8711H8.5957C8.11031 20.8711 7.7168 21.2646 7.7168 21.75C7.7168 22.2354 8.11031 22.6289 8.5957 22.6289H13.2832C13.7686 22.6289 14.1621 22.2354 14.1621 21.75C14.1621 21.2646 13.7686 20.8711 13.2832 20.8711Z" fill="#FF6609"/>
<path d="M25.8809 19.1091V11.0848C25.8809 9.92637 25.4342 8.83354 24.6231 8.00701L21.057 4.31918C21.0553 4.31742 21.0536 4.31561 21.0519 4.31385C20.2308 3.47889 19.0883 3 17.9174 3H6.60352C5.14963 3 3.9668 4.18283 3.9668 5.63672V28.4297C3.9668 29.8836 5.14963 31.0664 6.60352 31.0664H20.1875C21.44 32.2637 23.1366 33 25.002 33C28.879 33 32.0332 29.8721 32.0332 26.0273C32.0332 22.4777 29.3446 19.5393 25.8809 19.1091ZM5.72461 28.4297V5.63672C5.72461 5.15209 6.11889 4.75781 6.60352 4.75781H17.9174C18.619 4.75781 19.3036 5.04439 19.7963 5.54402L23.3617 9.23127C23.3634 9.23303 23.3651 9.23479 23.3668 9.23648C23.8545 9.7326 24.123 10.389 24.123 11.0848V19.1099C20.6917 19.5434 18.0293 22.4803 18.0293 26.0274C18.0293 27.2129 18.3271 28.3301 18.8512 29.3087H6.60352C6.11889 29.3086 5.72461 28.9143 5.72461 28.4297ZM25.002 31.2422C22.1265 31.2422 19.7871 28.9028 19.7871 26.0273C19.7871 23.1519 22.1265 20.8125 25.002 20.8125C27.9097 20.8125 30.2754 23.1519 30.2754 26.0273C30.2754 28.9028 27.9097 31.2422 25.002 31.2422Z" fill="#FF6609"/>
<path d="M27.0297 23.9458C26.6568 23.6352 26.1026 23.6856 25.7918 24.0584L24.3084 25.8385L23.9719 25.1655C23.7548 24.7313 23.2269 24.5553 22.7927 24.7725C22.3585 24.9895 22.1825 25.5175 22.3996 25.9516L23.3371 27.8266C23.4698 28.0919 23.7273 28.2724 24.0219 28.3066C24.0558 28.3105 24.0897 28.3125 24.1233 28.3125C24.3824 28.3125 24.6304 28.1979 24.7985 27.9962L27.1422 25.1837C27.4529 24.8107 27.4025 24.2566 27.0297 23.9458Z" fill="#FF6609"/>
<path d="M17.9707 13.2539H18.9082C19.3936 13.2539 19.7871 12.8604 19.7871 12.375C19.7871 11.8896 19.3936 11.4961 18.9082 11.4961H17.9707C17.4853 11.4961 17.0918 11.8896 17.0918 12.375C17.0918 12.8604 17.4853 13.2539 17.9707 13.2539Z" fill="#FF6609"/>
<path d="M19.7871 17.0625C19.7871 16.5771 19.3936 16.1836 18.9082 16.1836H17.9707C17.4853 16.1836 17.0918 16.5771 17.0918 17.0625C17.0918 17.5479 17.4853 17.9414 17.9707 17.9414H18.9082C19.3936 17.9414 19.7871 17.5479 19.7871 17.0625Z" fill="#FF6609"/>
</g>
<defs>
<clipPath id="clip0_526_74328">
<rect width="30" height="30" fill="white" transform="translate(3 3)"/>
</clipPath>
</defs>
</svg>
