<svg width="20" height="21" viewBox="0 0 20 21" fill="none" xmlns="http://www.w3.org/2000/svg">
<path d="M0 9.09375L0 17.375C0 17.9219 0.429688 18.3906 1.01563 18.4297C2.92969 18.5469 7.03125 18.9375 9.375 20.5L9.375 10.1094C7.07031 8.54688 3.08594 8.11719 1.13281 8C0.507813 8 0 8.46875 0 9.09375ZM18.8281 8C16.875 8.11719 12.8906 8.54687 10.6641 10.1094C10.625 10.1094 10.625 10.1094 10.625 10.1094L10.625 20.5C12.9688 18.9375 17.0313 18.5469 18.9453 18.4297C19.5313 18.3906 20 17.9219 20 17.375L20 9.09375C20 8.46875 19.4531 8 18.8281 8ZM13.75 4.25C13.75 2.17969 12.0703 0.5 10 0.5C7.92969 0.5 6.25 2.17969 6.25 4.25C6.25 6.32031 7.92969 8 10 8C12.0703 8 13.75 6.32031 13.75 4.25Z" fill="white"/>
</svg>
