<svg width="20" height="17" viewBox="0 0 20 17" fill="none" xmlns="http://www.w3.org/2000/svg">
<path d="M18.6875 8.3125C18.3125 7.90625 17.6562 7.90625 17.2812 8.3125L12 13.5938L9.6875 11.3125C9.3125 10.9062 8.65625 10.9062 8.28125 11.3125C7.875 11.6875 7.875 12.3438 8.28125 12.7188L11.2813 15.7188C11.4688 15.9062 11.7188 16.0312 11.9688 16.0312C12.25 16.0312 12.5 15.9062 12.6875 15.7188L18.6875 9.71875C19.0938 9.34375 19.0938 8.6875 18.6875 8.3125ZM7.90625 6.625L5.40625 0.625C5.25 0.25 4.875 0.03125 4.5 0.03125C4.09375 0.03125 3.71875 0.25 3.5625 0.625L1.0625 6.625C0.84375 7.125 1.09375 7.71875 1.59375 7.9375C2.125 8.15625 2.6875 7.90625 2.90625 7.40625L3.0625 7H5.90625L6.0625 7.40625C6.21875 7.78125 6.59375 8 7 8C7.125 8 7.25 8 7.375 7.9375C7.875 7.71875 8.125 7.125 7.90625 6.625ZM3.90625 5L4.5 3.625L5.0625 5.03125H3.90625V5ZM10 8L12.5 8C13.875 8 15 6.90625 15 5.53125C15 4.8125 14.6563 4.1875 14.1875 3.71875C14.375 3.34375 14.5 2.9375 14.5 2.53125C14.5 1.125 13.375 0.03125 12 0.03125H10C9.4375 0.03125 9 0.46875 9 1L9 7C9 7.5625 9.4375 8 10 8ZM11 2.03125H12C12.25 2.03125 12.5 2.25 12.5 2.53125C12.5 2.78125 12.25 3.03125 12 3.03125H11V2.03125ZM11 5H12.5C12.75 5 13 5.25 13 5.5C13 5.78125 12.75 6 12.5 6H11V5Z" fill="white"/>
</svg>
