<svg width="16" height="17" viewBox="0 0 16 17" fill="none" xmlns="http://www.w3.org/2000/svg">
<path d="M0 7.375L0 14C0 14.4375 0.34375 14.8125 0.8125 14.8438C2.34375 14.9375 5.625 15.25 7.5 16.5L7.5 8.1875C5.65625 6.9375 2.46875 6.59375 0.90625 6.5C0.40625 6.5 0 6.875 0 7.375ZM15.0625 6.5C13.5 6.59375 10.3125 6.9375 8.53125 8.1875C8.5 8.1875 8.5 8.1875 8.5 8.1875L8.5 16.5C10.375 15.25 13.625 14.9375 15.1563 14.8438C15.625 14.8125 16 14.4375 16 14V7.375C16 6.875 15.5625 6.5 15.0625 6.5ZM11 3.5C11 1.84375 9.65625 0.5 8 0.5C6.34375 0.5 5 1.84375 5 3.5C5 5.15625 6.34375 6.5 8 6.5C9.65625 6.5 11 5.15625 11 3.5Z" fill="white"/>
</svg>
