<svg width="14" height="24" viewBox="0 0 14 24" fill="none" xmlns="http://www.w3.org/2000/svg">
<path d="M7 14.875C8.44922 14.875 9.625 13.7266 9.625 12.25V7.875C9.625 6.42578 8.44922 5.25 7 5.25C5.52344 5.25 4.375 6.42578 4.375 7.875L4.375 12.25C4.375 13.6992 5.52344 14.875 7 14.875ZM11.1563 10.5C10.7734 10.5 10.5 10.8008 10.5 11.1562V12.25C10.5 14.2734 8.80469 15.8867 6.75391 15.75C4.94922 15.6406 3.5 13.9453 3.5 12.1133V11.1562C3.5 10.8008 3.19922 10.5 2.84375 10.5C2.46094 10.5 2.1875 10.8008 2.1875 11.1562V12.0312C2.1875 14.4648 3.91016 16.6523 6.34375 16.9805V17.9375H5.25C4.73047 17.9375 4.34766 18.375 4.375 18.8672C4.375 19.0859 4.56641 19.25 4.8125 19.25H9.1875C9.40625 19.25 9.59766 19.0859 9.59766 18.8672C9.625 18.375 9.24219 17.9375 8.75 17.9375H7.65625V17.0352C9.98047 16.707 11.8125 14.6836 11.8125 12.25V11.1562C11.8125 10.8008 11.5117 10.5 11.1563 10.5Z" fill="#252525"/>
</svg>
