<svg width="16" height="14" viewBox="0 0 16 14" fill="none" xmlns="http://www.w3.org/2000/svg">
<path d="M16 8L15.9688 11.5C15.9688 12.9062 14.875 14 13.5 14C12.6563 14 12 13.3438 12 12.5V8.53125C12 7.6875 12.6563 7 13.5 7C13.8125 7 14.125 7.09375 14.4375 7.21875C14.0313 4 11.3125 1.53125 8 1.53125C4.65625 1.53125 1.9375 4 1.53125 7.21875C1.84375 7.09375 2.15625 7 2.5 7C3.3125 7 4 7.6875 4 8.53125V12.5C4 13.3438 3.3125 14 2.5 14C1.09375 14 0 12.9062 0 11.5L0 8C0 3.59375 3.5625 0 8 0C12.375 0 15.9688 3.59375 15.9688 8C15.9688 8 15.9688 8 16 8Z" fill="white"/>
</svg>
