<svg width="18" height="21" viewBox="0 0 18 21" fill="none" xmlns="http://www.w3.org/2000/svg">
<path d="M17.75 13.625L17.75 2.375C17.75 1.35937 16.8906 0.5 15.875 0.5L4 0.5C1.89063 0.5 0.25 2.17969 0.25 4.25L0.25 16.75C0.25 18.8594 1.89063 20.5 4 20.5L16.5 20.5C17.1641 20.5 17.75 19.9531 17.75 19.2891C17.75 18.8594 17.4766 18.4687 17.125 18.2344V15.0703C17.4766 14.6797 17.75 14.2109 17.75 13.625ZM5.83594 5.5L13.3359 5.5C13.6875 5.5 14 5.8125 14 6.125C14 6.47656 13.6875 6.75 13.375 6.75L5.83594 6.75C5.52344 6.75 5.25 6.47656 5.25 6.125C5.25 5.8125 5.52344 5.5 5.83594 5.5ZM5.83594 8L13.3359 8C13.6875 8 14 8.3125 14 8.625C14 8.97656 13.6875 9.25 13.375 9.25L5.83594 9.25C5.52344 9.25 5.25 8.97656 5.25 8.625C5.25 8.3125 5.52344 8 5.83594 8ZM15.25 18L4 18C3.29688 18 2.75 17.4531 2.75 16.75C2.75 16.0859 3.29688 15.5 4 15.5L15.25 15.5V18Z" fill="white"/>
</svg>
