<svg width="36" height="36" viewBox="0 0 36 36" fill="none" xmlns="http://www.w3.org/2000/svg">
<path d="M22.5 29.625C20.2008 29.625 17.9532 28.9432 16.0415 27.6658C14.1298 26.3885 12.6398 24.5729 11.7599 22.4487C10.88 20.3245 10.6498 17.9871 11.0984 15.7321C11.5469 13.4771 12.6541 11.4057 14.2799 9.77989C15.9057 8.1541 17.9771 7.04693 20.2321 6.59838C22.4871 6.14982 24.8245 6.38004 26.9487 7.25991C29.0729 8.13977 30.8885 9.62978 32.1658 11.5415C33.4432 13.4532 34.125 15.7008 34.125 18C34.121 21.0819 32.895 24.0365 30.7157 26.2157C28.5365 28.395 25.5819 29.621 22.5 29.625ZM22.5 8.62501C20.6458 8.62501 18.8332 9.17484 17.2915 10.205C15.7498 11.2351 14.5482 12.6993 13.8386 14.4123C13.1291 16.1254 12.9434 18.0104 13.3051 19.829C13.6669 21.6475 14.5598 23.318 15.8709 24.6291C17.182 25.9403 18.8525 26.8331 20.671 27.1949C22.4896 27.5566 24.3746 27.3709 26.0877 26.6614C27.8007 25.9518 29.2649 24.7502 30.295 23.2085C31.3252 21.6668 31.875 19.8542 31.875 18C31.875 15.5136 30.8873 13.129 29.1291 11.3709C27.371 9.61273 24.9864 8.62501 22.5 8.62501Z" fill="#FF6609"/>
<path d="M25.5 22.125C25.3522 22.1257 25.2057 22.0969 25.0692 22.0402C24.9327 21.9835 24.8089 21.9002 24.705 21.795L21.705 18.795C21.494 18.5842 21.3753 18.2983 21.375 18V12C21.375 11.7016 21.4935 11.4155 21.7045 11.2045C21.9155 10.9935 22.2016 10.875 22.5 10.875C22.7984 10.875 23.0845 10.9935 23.2955 11.2045C23.5065 11.4155 23.625 11.7016 23.625 12V17.535L26.295 20.205C26.5057 20.4159 26.624 20.7019 26.624 21C26.624 21.2981 26.5057 21.5841 26.295 21.795C26.1911 21.9002 26.0673 21.9835 25.9308 22.0402C25.7943 22.0969 25.6478 22.1257 25.5 22.125Z" fill="#FF6609"/>
<path d="M12 10.125H7.5C7.20163 10.125 6.91548 10.0065 6.7045 9.7955C6.49353 9.58452 6.375 9.29837 6.375 9C6.375 8.70163 6.49353 8.41548 6.7045 8.2045C6.91548 7.99353 7.20163 7.875 7.5 7.875H12C12.2984 7.875 12.5845 7.99353 12.7955 8.2045C13.0065 8.41548 13.125 8.70163 13.125 9C13.125 9.29837 13.0065 9.58452 12.7955 9.7955C12.5845 10.0065 12.2984 10.125 12 10.125Z" fill="#FF6609"/>
<path d="M9 14.625H4.5C4.20163 14.625 3.91548 14.5065 3.7045 14.2955C3.49353 14.0845 3.375 13.7984 3.375 13.5C3.375 13.2016 3.49353 12.9155 3.7045 12.7045C3.91548 12.4935 4.20163 12.375 4.5 12.375H9C9.29837 12.375 9.58452 12.4935 9.7955 12.7045C10.0065 12.9155 10.125 13.2016 10.125 13.5C10.125 13.7984 10.0065 14.0845 9.7955 14.2955C9.58452 14.5065 9.29837 14.625 9 14.625Z" fill="#FF6609"/>
<path d="M9 23.625H4.5C4.20163 23.625 3.91548 23.5065 3.7045 23.2955C3.49353 23.0845 3.375 22.7984 3.375 22.5C3.375 22.2016 3.49353 21.9155 3.7045 21.7045C3.91548 21.4935 4.20163 21.375 4.5 21.375H9C9.29837 21.375 9.58452 21.4935 9.7955 21.7045C10.0065 21.9155 10.125 22.2016 10.125 22.5C10.125 22.7984 10.0065 23.0845 9.7955 23.2955C9.58452 23.5065 9.29837 23.625 9 23.625Z" fill="#FF6609"/>
<path d="M9 19.125H3C2.70163 19.125 2.41548 19.0065 2.2045 18.7955C1.99353 18.5845 1.875 18.2984 1.875 18C1.875 17.7016 1.99353 17.4155 2.2045 17.2045C2.41548 16.9935 2.70163 16.875 3 16.875H9C9.29837 16.875 9.58452 16.9935 9.7955 17.2045C10.0065 17.4155 10.125 17.7016 10.125 18C10.125 18.2984 10.0065 18.5845 9.7955 18.7955C9.58452 19.0065 9.29837 19.125 9 19.125Z" fill="#FF6609"/>
<path d="M12 28.125H7.5C7.20163 28.125 6.91548 28.0065 6.7045 27.7955C6.49353 27.5845 6.375 27.2984 6.375 27C6.375 26.7016 6.49353 26.4155 6.7045 26.2045C6.91548 25.9935 7.20163 25.875 7.5 25.875H12C12.2984 25.875 12.5845 25.9935 12.7955 26.2045C13.0065 26.4155 13.125 26.7016 13.125 27C13.125 27.2984 13.0065 27.5845 12.7955 27.7955C12.5845 28.0065 12.2984 28.125 12 28.125Z" fill="#FF6609"/>
</svg>
