<svg width="18" height="18" viewBox="0 0 18 18" fill="none" xmlns="http://www.w3.org/2000/svg">
<path d="M16 6.03125L10.875 11.1875L6.8125 7.125L10.4375 3.5L10 3.09375C9.71875 2.8125 9.25 2.8125 8.96875 3.09375L6.25 5.78125C5.96875 6.09375 5.5 6.09375 5.21875 5.78125C4.90625 5.5 4.90625 5.03125 5.21875 4.71875L7.90625 2.03125C8.78125 1.15625 10.1875 1.15625 11.0625 2.03125L11.5 2.46875L11.9688 2C13.0625 0.875 14.9062 0.875 16 2C17.125 3.09375 17.125 4.9375 16 6.03125ZM8.15625 13.9062C6.65625 15.4062 4.75 16.4375 2.65625 16.8438L1.875 17C1.625 17.0625 1.375 16.9688 1.21875 16.7812C1.03125 16.625 0.9375 16.375 1 16.125L1.15625 15.3438C1.5625 13.25 2.59375 11.3438 4.09375 9.84375L6.09375 7.84375L10.1563 11.9062L8.15625 13.9062Z" fill="white"/>
</svg>
