<svg width="12" height="17" viewBox="0 0 12 17" fill="none" xmlns="http://www.w3.org/2000/svg">
<path d="M6 11.5C7.65625 11.5 9 10.1875 9 8.5L9 3.5C9 1.84375 7.65625 0.5 6 0.5C4.3125 0.5 3 1.84375 3 3.5L3 8.5C3 10.1562 4.3125 11.5 6 11.5ZM10.75 6.5C10.3125 6.5 10 6.84375 10 7.25V8.5C10 10.8125 8.0625 12.6562 5.71875 12.5C3.65625 12.375 2 10.4375 2 8.34375V7.25C2 6.84375 1.65625 6.5 1.25 6.5C0.8125 6.5 0.5 6.84375 0.5 7.25V8.25C0.5 11.0312 2.46875 13.5312 5.25 13.9062L5.25 15H4C3.40625 15 2.96875 15.5 3 16.0625C3 16.3125 3.21875 16.5 3.5 16.5H8.5C8.75 16.5 8.96875 16.3125 8.96875 16.0625C9 15.5 8.5625 15 8 15H6.75L6.75 13.9688C9.40625 13.5938 11.5 11.2812 11.5 8.5V7.25C11.5 6.84375 11.1563 6.5 10.75 6.5Z" fill="white"/>
</svg>
